<svg width="122" height="25" viewBox="0 0 122 25" fill="none" xmlns="http://www.w3.org/2000/svg">
<path d="M12.3004 18.248C12.3004 22.5297 10.1513 24.8294 6.1502 24.8294C2.14908 24.8294 0 22.5284 0 18.248H0.00684462V16.7614H3.20719V18.248H3.20035V18.9584C3.20035 21.024 4.21876 22.1136 6.14883 22.1136C8.07889 22.1136 9.09731 21.024 9.09731 18.9584V18.248C9.0672 13.8978 0.443505 12.5427 0.443505 6.1064C0.443505 2.08748 2.3941 0 6.14883 0C9.90356 0 11.8542 2.08748 11.8542 6.1064H11.8459V7.59296H8.64559V6.1064V5.14136C8.64559 3.32902 7.82019 2.44475 6.12556 2.44475C4.43094 2.44475 3.60553 3.32902 3.60553 5.14136V6.1064C3.60553 9.9282 12.2963 11.7748 12.2977 18.248H12.3004Z" fill="black"/>
<path d="M26.3543 24.5761H25.6137H23.5427L21.4908 12.4564L19.4402 24.5761H17.3692H16.6273L13.4502 7.02625H16.4247L18.2138 19.5895L20.3396 7.02761H22.6433L24.7691 19.5895L26.5568 7.02625H29.5313L26.3529 24.5761H26.3543Z" fill="black"/>
<path d="M31.0659 2.91998C31.0659 1.84544 31.8585 0.974854 32.8372 0.974854C33.8159 0.974854 34.6085 1.84544 34.6085 2.91998C34.6085 3.99451 33.8159 4.8651 32.8372 4.8651C31.8585 4.8651 31.0659 3.99451 31.0659 2.91998ZM31.237 24.5764V7.02513H34.4387V24.575H31.237V24.5764Z" fill="black"/>
<path d="M40.9599 20.3272C40.9599 21.6399 41.4075 22.119 42.634 22.119H43.6715V24.8293H42.634C39.3378 24.8293 37.7582 22.8171 37.7582 19.6113V9.48463H36.1826V7.02619H37.7582V1.91357H40.9585V7.02619H43.6715V9.48463H40.9585V20.3272H40.9599Z" fill="black"/>
<path d="M51.8215 11.2766C51.8215 9.96391 51.3739 9.48481 50.1474 9.48481C48.921 9.48481 48.4733 9.96391 48.4733 11.2766V20.3274C48.4733 21.6401 48.921 22.1192 50.1474 22.1192C51.3739 22.1192 51.8215 21.6401 51.8215 20.3274V18.0866H55.0219V19.6115C55.0219 22.8173 53.4436 24.8295 50.1461 24.8295C46.8485 24.8295 45.2703 22.8173 45.2703 19.6115V11.9939C45.2703 8.78807 46.8485 6.77588 50.1461 6.77588C53.4436 6.77588 55.0219 8.78807 55.0219 11.9939V13.4928H51.8215V11.278V11.2766Z" fill="black"/>
<path d="M67.0335 12.514V24.5749H63.8331V12.6345C63.8331 10.8837 63.3718 9.46563 62.1494 9.46563C60.9271 9.46563 60.4849 10.8783 60.4836 12.6222H60.4767V24.5763H57.2764V0.00146484H60.4767V8.62242C61.0229 7.48628 61.9208 6.77038 63.2924 6.77038C65.5975 6.77038 67.0335 8.69634 67.0335 12.5154V12.514Z" fill="black"/>
<path d="M80.4263 0.00146484L75.4629 24.5763H71.982L67.0186 0.00146484H70.1067L73.7231 19.7059L77.3396 0.00146484H80.4263Z" fill="black"/>
<path d="M81.7473 2.91998C81.7473 1.84544 82.5399 0.974854 83.5186 0.974854C84.4973 0.974854 85.2899 1.84544 85.2899 2.91998C85.2899 3.99451 84.4973 4.8651 83.5186 4.8651C82.5399 4.8651 81.7473 3.99451 81.7473 2.91998ZM81.9184 24.5764V7.02513H85.1201V24.575H81.9184V24.5764Z" fill="black"/>
<path d="M97.5081 19.0708C97.5081 22.8898 96.0722 24.8144 93.767 24.8144C92.3955 24.8144 91.4975 24.0985 90.9513 22.9624V24.5763H87.751V0.00146484H90.9513V8.62242C91.4975 7.48628 92.3955 6.77038 93.767 6.77038C96.0722 6.77038 97.5081 8.69497 97.5081 12.514V19.0708ZM94.3064 12.6359C94.3064 10.8851 93.8464 9.467 92.6227 9.467C91.3989 9.467 90.9582 10.8796 90.9568 12.6235H90.95V18.964H90.9568C90.9595 20.7079 91.403 22.1192 92.6227 22.1192C93.8423 22.1192 94.3064 20.7011 94.3064 18.9503V12.6372V12.6359Z" fill="black"/>
<path d="M109.476 11.9926V15.8061H102.926V20.3261C102.926 21.6388 103.374 22.1179 104.6 22.1179C105.827 22.1179 106.274 21.6388 106.274 20.3261V18.0853H109.475V19.6102C109.475 22.816 107.896 24.8282 104.599 24.8282C101.301 24.8282 99.7229 22.816 99.7229 19.6102V11.9926C99.7229 8.78673 101.301 6.77454 104.599 6.77454C107.896 6.77454 109.475 8.7881 109.475 11.9926H109.476ZM106.274 11.9926V11.2767C106.274 9.96393 105.827 9.48484 104.6 9.48484C103.374 9.48484 102.926 9.96393 102.926 11.2767V14.0225H106.276V11.9926H106.274Z" fill="black"/>
<path d="M121.022 19.6115C121.022 22.8173 119.442 24.8295 116.146 24.8295C112.85 24.8295 111.27 22.8173 111.27 19.6115H114.471V20.3274C114.471 21.6401 114.918 22.1192 116.145 22.1192C117.371 22.1192 117.819 21.6401 117.819 20.3274V19.6115C117.819 17.1462 111.608 17.023 111.608 11.9939C111.608 8.78807 112.847 6.77588 116.145 6.77588C119.442 6.77588 120.681 8.78807 120.681 11.9939H117.481V11.278C117.481 9.96528 117.07 9.48618 116.146 9.48618C115.222 9.48618 114.811 9.96528 114.811 11.278V11.9939C114.811 14.5194 121.022 14.7713 121.022 19.6115Z" fill="black"/>
</svg>
