<svg width="79" height="79" viewBox="0 0 79 79" fill="none" xmlns="http://www.w3.org/2000/svg">
<g filter="url(#filter0_dii_544_426)">
<rect x="3.02612" y="1.513" width="72.6246" height="72.6246" rx="36.3123" fill="#030415"/>
<rect x="4.53914" y="3.02601" width="69.5986" height="69.5986" rx="34.7993" stroke="url(#paint0_linear_544_426)" stroke-width="3.02603"/>
<path d="M36.1541 39.3572H40.4697V49.4129C40.4697 50.8934 42.3133 51.5917 43.2909 50.4744L53.8634 38.4634C54.7851 37.4159 54.0449 35.7818 52.6483 35.7818H48.3327V25.7261C48.3327 24.2457 46.4892 23.5474 45.5115 24.6647L34.9391 36.6757C34.0312 37.7232 34.7715 39.3572 36.1541 39.3572Z" fill="white"/>
<path d="M35.0089 27.4433H25.2325C24.6599 27.4433 24.1851 26.9685 24.1851 26.3959C24.1851 25.8232 24.6599 25.3484 25.2325 25.3484H35.0089C35.5815 25.3484 36.0564 25.8232 36.0564 26.3959C36.0564 26.9685 35.5815 27.4433 35.0089 27.4433Z" fill="white"/>
<path d="M33.6123 49.7894H25.2325C24.6599 49.7894 24.1851 49.3145 24.1851 48.7419C24.1851 48.1693 24.6599 47.6945 25.2325 47.6945H33.6123C34.1849 47.6945 34.6598 48.1693 34.6598 48.7419C34.6598 49.3145 34.1849 49.7894 33.6123 49.7894Z" fill="white"/>
<path d="M29.4224 38.6164H25.2325C24.6599 38.6164 24.1851 38.1415 24.1851 37.5689C24.1851 36.9963 24.6599 36.5214 25.2325 36.5214H29.4224C29.995 36.5214 30.4699 36.9963 30.4699 37.5689C30.4699 38.1415 29.995 38.6164 29.4224 38.6164Z" fill="white"/>
</g>
<defs>
<filter id="filter0_dii_544_426" x="9.67979e-05" y="-1.26362e-05" width="78.6768" height="78.6767" filterUnits="userSpaceOnUse" color-interpolation-filters="sRGB">
<feFlood flood-opacity="0" result="BackgroundImageFix"/>
<feColorMatrix in="SourceAlpha" type="matrix" values="0 0 0 0 0 0 0 0 0 0 0 0 0 0 0 0 0 0 127 0" result="hardAlpha"/>
<feOffset dy="1.51301"/>
<feGaussianBlur stdDeviation="1.51301"/>
<feComposite in2="hardAlpha" operator="out"/>
<feColorMatrix type="matrix" values="0 0 0 0 0.0627451 0 0 0 0 0.0941176 0 0 0 0 0.156863 0 0 0 0.05 0"/>
<feBlend mode="normal" in2="BackgroundImageFix" result="effect1_dropShadow_544_426"/>
<feBlend mode="normal" in="SourceGraphic" in2="effect1_dropShadow_544_426" result="shape"/>
<feColorMatrix in="SourceAlpha" type="matrix" values="0 0 0 0 0 0 0 0 0 0 0 0 0 0 0 0 0 0 127 0" result="hardAlpha"/>
<feOffset dy="-3.02603"/>
<feComposite in2="hardAlpha" operator="arithmetic" k2="-1" k3="1"/>
<feColorMatrix type="matrix" values="0 0 0 0 0.0627451 0 0 0 0 0.0941176 0 0 0 0 0.156863 0 0 0 0.05 0"/>
<feBlend mode="normal" in2="shape" result="effect2_innerShadow_544_426"/>
<feColorMatrix in="SourceAlpha" type="matrix" values="0 0 0 0 0 0 0 0 0 0 0 0 0 0 0 0 0 0 127 0" result="hardAlpha"/>
<feMorphology radius="1.51301" operator="erode" in="SourceAlpha" result="effect3_innerShadow_544_426"/>
<feOffset/>
<feComposite in2="hardAlpha" operator="arithmetic" k2="-1" k3="1"/>
<feColorMatrix type="matrix" values="0 0 0 0 0.0627451 0 0 0 0 0.0941176 0 0 0 0 0.156863 0 0 0 0.18 0"/>
<feBlend mode="normal" in2="effect2_innerShadow_544_426" result="effect3_innerShadow_544_426"/>
</filter>
<linearGradient id="paint0_linear_544_426" x1="39.3384" y1="1.513" x2="39.3384" y2="74.1376" gradientUnits="userSpaceOnUse">
<stop stop-color="white" stop-opacity="0.12"/>
<stop offset="1" stop-color="white" stop-opacity="0"/>
</linearGradient>
</defs>
</svg>
