<svg width="79" height="79" viewBox="0 0 79 79" fill="none" xmlns="http://www.w3.org/2000/svg">
<g filter="url(#filter0_dii_544_456)">
<rect x="3.03394" y="1.51697" width="72.8153" height="72.8153" rx="36.4076" fill="#030415"/>
<rect x="4.55092" y="3.03395" width="69.7813" height="69.7813" rx="34.8906" stroke="url(#paint0_linear_544_456)" stroke-width="3.03397"/>
<path d="M53.9624 43.7308C52.9542 42.5826 51.4559 41.8684 49.8036 41.8684C46.7089 41.8684 44.2024 44.3749 44.2024 47.4696C44.2024 48.5198 44.4965 49.514 45.0146 50.3542C45.2946 50.8303 45.6587 51.2644 46.0788 51.6285C47.059 52.5246 48.3613 53.0708 49.8036 53.0708C51.848 53.0708 53.6264 51.9785 54.5926 50.3542C55.1107 49.514 55.4047 48.5198 55.4047 47.4696C55.4047 46.0413 54.8586 44.725 53.9624 43.7308ZM52.044 49.682C51.834 49.8921 51.5679 49.9901 51.3019 49.9901C51.0358 49.9901 50.7698 49.8921 50.5597 49.682L49.8176 48.9399L49.0474 49.7101C48.8374 49.9201 48.5713 50.0181 48.3053 50.0181C48.0392 50.0181 47.7731 49.9201 47.5631 49.7101C47.157 49.304 47.157 48.6318 47.5631 48.2257L48.3333 47.4556L47.5911 46.7134C47.185 46.3073 47.185 45.6352 47.5911 45.2291C47.9972 44.823 48.6693 44.823 49.0754 45.2291L49.8176 45.9713L50.5177 45.2711C50.9238 44.865 51.5959 44.865 52.002 45.2711C52.4081 45.6772 52.4081 46.3493 52.002 46.7554L51.3019 47.4556L52.044 48.1977C52.4501 48.6038 52.4501 49.262 52.044 49.682Z" fill="white"/>
<path d="M40.3236 37.7655C39.7494 37.7655 39.2874 38.2276 39.2874 38.8017C39.2874 39.3758 39.7494 39.8379 40.3236 39.8379C40.8977 39.8379 41.3598 39.3758 41.3598 38.8017C41.3598 38.2276 40.8977 37.7655 40.3236 37.7655Z" fill="white"/>
<path d="M32.6639 39.152C32.0898 39.152 31.6277 39.6141 31.6277 40.1882C31.6277 40.7623 32.0898 41.2244 32.6639 41.2244C33.238 41.2244 33.7001 40.7623 33.7001 40.1882C33.7001 39.6141 33.238 39.152 32.6639 39.152Z" fill="white"/>
<path d="M45.8687 23.6646H34.1342C33.7422 23.6646 33.3641 23.6786 33 23.7346C28.5891 24.1407 25.9985 27.0953 25.9985 31.8003V43.5347C25.9985 48.2397 28.5891 51.1943 33 51.6004C33.3641 51.6564 33.7422 51.6704 34.1342 51.6704H42.1019C42.648 51.6704 42.9981 51.0543 42.7881 50.5502C42.382 49.584 42.1019 48.4637 42.1019 47.4695C42.1019 43.2266 45.5606 39.7679 49.8035 39.7679C50.8677 39.7679 51.904 39.978 52.8562 40.3981C53.3743 40.6221 54.0044 40.272 54.0044 39.7119V31.8003C54.0044 26.7032 50.9658 23.6646 45.8687 23.6646ZM43.4742 32.1363V38.8017C43.4742 38.8157 43.4602 38.8297 43.4602 38.8577C43.4322 40.5661 42.0459 41.9524 40.3235 41.9524C38.5872 41.9524 37.1869 40.5381 37.1869 38.8157C37.1869 37.0794 38.6012 35.6791 40.3235 35.6791C40.6876 35.6791 41.0377 35.7491 41.3738 35.8751V33.5086L35.8146 35.0209V40.202C35.8146 40.216 35.8006 40.23 35.8006 40.244C35.7726 41.9524 34.3863 43.3247 32.6639 43.3247C30.9276 43.3247 29.5273 41.9104 29.5273 40.188C29.5273 38.4657 30.9416 37.0514 32.6639 37.0514C33.028 37.0514 33.3781 37.1214 33.7001 37.2474V34.2228V31.7722C33.7001 30.47 34.5123 29.4198 35.7586 29.0837L39.9315 27.9354C41.2337 27.5854 42.0319 27.9354 42.48 28.2715C43.1241 28.7616 43.4462 29.5598 43.4462 30.624V32.1363H43.4742Z" fill="white"/>
</g>
<defs>
<filter id="filter0_dii_544_456" x="-3.31402e-05" y="-1.65701e-05" width="78.8831" height="78.8832" filterUnits="userSpaceOnUse" color-interpolation-filters="sRGB">
<feFlood flood-opacity="0" result="BackgroundImageFix"/>
<feColorMatrix in="SourceAlpha" type="matrix" values="0 0 0 0 0 0 0 0 0 0 0 0 0 0 0 0 0 0 127 0" result="hardAlpha"/>
<feOffset dy="1.51698"/>
<feGaussianBlur stdDeviation="1.51698"/>
<feComposite in2="hardAlpha" operator="out"/>
<feColorMatrix type="matrix" values="0 0 0 0 0.0627451 0 0 0 0 0.0941176 0 0 0 0 0.156863 0 0 0 0.05 0"/>
<feBlend mode="normal" in2="BackgroundImageFix" result="effect1_dropShadow_544_456"/>
<feBlend mode="normal" in="SourceGraphic" in2="effect1_dropShadow_544_456" result="shape"/>
<feColorMatrix in="SourceAlpha" type="matrix" values="0 0 0 0 0 0 0 0 0 0 0 0 0 0 0 0 0 0 127 0" result="hardAlpha"/>
<feOffset dy="-3.03397"/>
<feComposite in2="hardAlpha" operator="arithmetic" k2="-1" k3="1"/>
<feColorMatrix type="matrix" values="0 0 0 0 0.0627451 0 0 0 0 0.0941176 0 0 0 0 0.156863 0 0 0 0.05 0"/>
<feBlend mode="normal" in2="shape" result="effect2_innerShadow_544_456"/>
<feColorMatrix in="SourceAlpha" type="matrix" values="0 0 0 0 0 0 0 0 0 0 0 0 0 0 0 0 0 0 127 0" result="hardAlpha"/>
<feMorphology radius="1.51698" operator="erode" in="SourceAlpha" result="effect3_innerShadow_544_456"/>
<feOffset/>
<feComposite in2="hardAlpha" operator="arithmetic" k2="-1" k3="1"/>
<feColorMatrix type="matrix" values="0 0 0 0 0.0627451 0 0 0 0 0.0941176 0 0 0 0 0.156863 0 0 0 0.18 0"/>
<feBlend mode="normal" in2="effect2_innerShadow_544_456" result="effect3_innerShadow_544_456"/>
</filter>
<linearGradient id="paint0_linear_544_456" x1="39.4416" y1="1.51697" x2="39.4416" y2="74.3322" gradientUnits="userSpaceOnUse">
<stop stop-color="white" stop-opacity="0.12"/>
<stop offset="1" stop-color="white" stop-opacity="0"/>
</linearGradient>
</defs>
</svg>
