<svg width="79" height="79" viewBox="0 0 79 79" fill="none" xmlns="http://www.w3.org/2000/svg">
<g filter="url(#filter0_dii_544_438)">
<rect x="3.02612" y="1.513" width="72.6246" height="72.6246" rx="36.3123" fill="#030415"/>
<rect x="4.53914" y="3.02601" width="69.5986" height="69.5986" rx="34.7993" stroke="url(#paint0_linear_544_438)" stroke-width="3.02603"/>
<path d="M39.3383 36.0792C42.6293 36.0792 45.2973 33.4113 45.2973 30.1203C45.2973 26.8292 42.6293 24.1613 39.3383 24.1613C36.0473 24.1613 33.3794 26.8292 33.3794 30.1203C33.3794 33.4113 36.0473 36.0792 39.3383 36.0792Z" fill="white"/>
<path d="M29.3655 46.5074C26.8976 50.4851 35.0668 52.4663 39.3383 52.4663C43.6098 52.4663 51.779 50.4851 49.3111 46.5074C47.4552 43.5161 43.7014 40.5484 39.3383 40.5484C34.9752 40.5484 31.2214 43.5161 29.3655 46.5074Z" fill="white"/>
</g>
<defs>
<filter id="filter0_dii_544_438" x="9.67979e-05" y="-1.26362e-05" width="78.6768" height="78.6767" filterUnits="userSpaceOnUse" color-interpolation-filters="sRGB">
<feFlood flood-opacity="0" result="BackgroundImageFix"/>
<feColorMatrix in="SourceAlpha" type="matrix" values="0 0 0 0 0 0 0 0 0 0 0 0 0 0 0 0 0 0 127 0" result="hardAlpha"/>
<feOffset dy="1.51301"/>
<feGaussianBlur stdDeviation="1.51301"/>
<feComposite in2="hardAlpha" operator="out"/>
<feColorMatrix type="matrix" values="0 0 0 0 0.0627451 0 0 0 0 0.0941176 0 0 0 0 0.156863 0 0 0 0.05 0"/>
<feBlend mode="normal" in2="BackgroundImageFix" result="effect1_dropShadow_544_438"/>
<feBlend mode="normal" in="SourceGraphic" in2="effect1_dropShadow_544_438" result="shape"/>
<feColorMatrix in="SourceAlpha" type="matrix" values="0 0 0 0 0 0 0 0 0 0 0 0 0 0 0 0 0 0 127 0" result="hardAlpha"/>
<feOffset dy="-3.02603"/>
<feComposite in2="hardAlpha" operator="arithmetic" k2="-1" k3="1"/>
<feColorMatrix type="matrix" values="0 0 0 0 0.0627451 0 0 0 0 0.0941176 0 0 0 0 0.156863 0 0 0 0.05 0"/>
<feBlend mode="normal" in2="shape" result="effect2_innerShadow_544_438"/>
<feColorMatrix in="SourceAlpha" type="matrix" values="0 0 0 0 0 0 0 0 0 0 0 0 0 0 0 0 0 0 127 0" result="hardAlpha"/>
<feMorphology radius="1.51301" operator="erode" in="SourceAlpha" result="effect3_innerShadow_544_438"/>
<feOffset/>
<feComposite in2="hardAlpha" operator="arithmetic" k2="-1" k3="1"/>
<feColorMatrix type="matrix" values="0 0 0 0 0.0627451 0 0 0 0 0.0941176 0 0 0 0 0.156863 0 0 0 0.18 0"/>
<feBlend mode="normal" in2="effect2_innerShadow_544_438" result="effect3_innerShadow_544_438"/>
</filter>
<linearGradient id="paint0_linear_544_438" x1="39.3384" y1="1.513" x2="39.3384" y2="74.1376" gradientUnits="userSpaceOnUse">
<stop stop-color="white" stop-opacity="0.12"/>
<stop offset="1" stop-color="white" stop-opacity="0"/>
</linearGradient>
</defs>
</svg>
