<svg width="79" height="79" viewBox="0 0 79 79" fill="none" xmlns="http://www.w3.org/2000/svg">
<g filter="url(#filter0_dii_544_450)">
<rect x="3.03394" y="1.51697" width="72.8153" height="72.8153" rx="36.4076" fill="#030415"/>
<rect x="4.55092" y="3.03395" width="69.7813" height="69.7813" rx="34.8906" stroke="url(#paint0_linear_544_450)" stroke-width="3.03397"/>
<path d="M33.8262 46.755V32.5281C33.8262 31.9679 33.9942 31.4218 34.3023 30.9597L38.1251 25.2745C38.7272 24.3643 40.2255 23.7202 41.4998 24.1963C42.8721 24.6584 43.7823 26.1987 43.4882 27.571L42.76 32.15C42.704 32.5701 42.8161 32.9481 43.0541 33.2422C43.2922 33.5083 43.6422 33.6763 44.0203 33.6763H49.7755C50.8817 33.6763 51.8339 34.1244 52.3941 34.9085C52.9262 35.6647 53.0242 36.6449 52.6741 37.6391L49.2294 48.1273C48.7953 49.8637 46.9049 51.278 45.0285 51.278H39.5674C38.6292 51.278 37.3129 50.9559 36.7108 50.3538L34.9184 48.9675C34.2323 48.4494 33.8262 47.6232 33.8262 46.755Z" fill="white"/>
<path d="M29.3738 29.7979H27.9315C25.7611 29.7979 24.8789 30.638 24.8789 32.7105V46.7974C24.8789 48.8698 25.7611 49.71 27.9315 49.71H29.3738C31.5443 49.71 32.4265 48.8698 32.4265 46.7974V32.7105C32.4265 30.638 31.5443 29.7979 29.3738 29.7979Z" fill="white"/>
</g>
<defs>
<filter id="filter0_dii_544_450" x="-3.31402e-05" y="-1.65701e-05" width="78.8831" height="78.8832" filterUnits="userSpaceOnUse" color-interpolation-filters="sRGB">
<feFlood flood-opacity="0" result="BackgroundImageFix"/>
<feColorMatrix in="SourceAlpha" type="matrix" values="0 0 0 0 0 0 0 0 0 0 0 0 0 0 0 0 0 0 127 0" result="hardAlpha"/>
<feOffset dy="1.51698"/>
<feGaussianBlur stdDeviation="1.51698"/>
<feComposite in2="hardAlpha" operator="out"/>
<feColorMatrix type="matrix" values="0 0 0 0 0.0627451 0 0 0 0 0.0941176 0 0 0 0 0.156863 0 0 0 0.05 0"/>
<feBlend mode="normal" in2="BackgroundImageFix" result="effect1_dropShadow_544_450"/>
<feBlend mode="normal" in="SourceGraphic" in2="effect1_dropShadow_544_450" result="shape"/>
<feColorMatrix in="SourceAlpha" type="matrix" values="0 0 0 0 0 0 0 0 0 0 0 0 0 0 0 0 0 0 127 0" result="hardAlpha"/>
<feOffset dy="-3.03397"/>
<feComposite in2="hardAlpha" operator="arithmetic" k2="-1" k3="1"/>
<feColorMatrix type="matrix" values="0 0 0 0 0.0627451 0 0 0 0 0.0941176 0 0 0 0 0.156863 0 0 0 0.05 0"/>
<feBlend mode="normal" in2="shape" result="effect2_innerShadow_544_450"/>
<feColorMatrix in="SourceAlpha" type="matrix" values="0 0 0 0 0 0 0 0 0 0 0 0 0 0 0 0 0 0 127 0" result="hardAlpha"/>
<feMorphology radius="1.51698" operator="erode" in="SourceAlpha" result="effect3_innerShadow_544_450"/>
<feOffset/>
<feComposite in2="hardAlpha" operator="arithmetic" k2="-1" k3="1"/>
<feColorMatrix type="matrix" values="0 0 0 0 0.0627451 0 0 0 0 0.0941176 0 0 0 0 0.156863 0 0 0 0.18 0"/>
<feBlend mode="normal" in2="effect2_innerShadow_544_450" result="effect3_innerShadow_544_450"/>
</filter>
<linearGradient id="paint0_linear_544_450" x1="39.4416" y1="1.51697" x2="39.4416" y2="74.3322" gradientUnits="userSpaceOnUse">
<stop stop-color="white" stop-opacity="0.12"/>
<stop offset="1" stop-color="white" stop-opacity="0"/>
</linearGradient>
</defs>
</svg>
