<svg width="79" height="79" viewBox="0 0 79 79" fill="none" xmlns="http://www.w3.org/2000/svg">
<g filter="url(#filter0_dii_544_444)">
<rect x="3.03394" y="1.51697" width="72.8153" height="72.8153" rx="36.4076" fill="#030415"/>
<rect x="4.55092" y="3.03395" width="69.7813" height="69.7813" rx="34.8906" stroke="url(#paint0_linear_544_444)" stroke-width="3.03397"/>
<path d="M48.4035 28.2156H31.6C31.0259 28.2156 30.5498 27.7395 30.5498 27.1653C30.5498 26.5912 31.0259 26.1151 31.6 26.1151H48.4035C48.9777 26.1151 49.4538 26.5912 49.4538 27.1653C49.4538 27.7395 48.9777 28.2156 48.4035 28.2156Z" fill="white"/>
<path d="M44.2027 24.7148H35.801C35.2268 24.7148 34.7507 24.2387 34.7507 23.6646C34.7507 23.0905 35.2268 22.6144 35.801 22.6144H44.2027C44.7768 22.6144 45.2529 23.0905 45.2529 23.6646C45.2529 24.2387 44.7768 24.7148 44.2027 24.7148Z" fill="white"/>
<path d="M42.6763 43.5627C42.2002 43.5627 41.8081 43.9548 41.8081 44.4309C41.8081 44.907 42.2002 45.2991 42.6763 45.2991C43.1524 45.2991 43.5445 44.907 43.5445 44.4309C43.5445 43.9548 43.1524 43.5627 42.6763 43.5627Z" fill="white"/>
<path d="M36.5152 45.7053C36.5152 45.2292 36.1231 44.8511 35.647 44.8511C35.1709 44.8511 34.7788 45.2432 34.7788 45.7193C34.7788 46.1954 35.1709 46.5874 35.647 46.5874C36.1231 46.5734 36.5152 46.1814 36.5152 45.7053Z" fill="white"/>
<path d="M48.4035 30.666H31.6C28.5193 30.666 25.9988 33.1865 25.9988 36.2672V46.0692C25.9988 49.1499 28.5193 51.6704 31.6 51.6704H48.4035C51.4841 51.6704 54.0046 49.1499 54.0046 46.0692V36.2672C54.0046 33.1865 51.4841 30.666 48.4035 30.666ZM45.6449 38.3116V44.4309C45.6449 44.4589 45.6309 44.4729 45.6309 44.5009C45.5889 46.0972 44.2866 47.3995 42.6763 47.3995C41.0379 47.3995 39.7076 46.0692 39.7076 44.4309C39.7076 42.7926 41.0379 41.4623 42.6763 41.4623C42.9843 41.4623 43.2644 41.5183 43.5445 41.6023V39.6839L38.6154 41.0282V45.6912V45.7052C38.6154 47.3435 37.2851 48.6738 35.6468 48.6738C34.0085 48.6738 32.6782 47.3435 32.6782 45.7052C32.6782 44.0668 34.0085 42.7365 35.6468 42.7365C35.9549 42.7365 36.2349 42.7926 36.515 42.8766V40.216V37.9755C36.515 36.7293 37.2851 35.7211 38.4754 35.413L42.2982 34.3628C43.5304 34.0407 44.2866 34.3628 44.7207 34.6989C45.1408 35.0209 45.6449 35.6791 45.6449 36.9253V38.3116Z" fill="white"/>
</g>
<defs>
<filter id="filter0_dii_544_444" x="-3.31402e-05" y="-1.65701e-05" width="78.8831" height="78.8832" filterUnits="userSpaceOnUse" color-interpolation-filters="sRGB">
<feFlood flood-opacity="0" result="BackgroundImageFix"/>
<feColorMatrix in="SourceAlpha" type="matrix" values="0 0 0 0 0 0 0 0 0 0 0 0 0 0 0 0 0 0 127 0" result="hardAlpha"/>
<feOffset dy="1.51698"/>
<feGaussianBlur stdDeviation="1.51698"/>
<feComposite in2="hardAlpha" operator="out"/>
<feColorMatrix type="matrix" values="0 0 0 0 0.0627451 0 0 0 0 0.0941176 0 0 0 0 0.156863 0 0 0 0.05 0"/>
<feBlend mode="normal" in2="BackgroundImageFix" result="effect1_dropShadow_544_444"/>
<feBlend mode="normal" in="SourceGraphic" in2="effect1_dropShadow_544_444" result="shape"/>
<feColorMatrix in="SourceAlpha" type="matrix" values="0 0 0 0 0 0 0 0 0 0 0 0 0 0 0 0 0 0 127 0" result="hardAlpha"/>
<feOffset dy="-3.03397"/>
<feComposite in2="hardAlpha" operator="arithmetic" k2="-1" k3="1"/>
<feColorMatrix type="matrix" values="0 0 0 0 0.0627451 0 0 0 0 0.0941176 0 0 0 0 0.156863 0 0 0 0.05 0"/>
<feBlend mode="normal" in2="shape" result="effect2_innerShadow_544_444"/>
<feColorMatrix in="SourceAlpha" type="matrix" values="0 0 0 0 0 0 0 0 0 0 0 0 0 0 0 0 0 0 127 0" result="hardAlpha"/>
<feMorphology radius="1.51698" operator="erode" in="SourceAlpha" result="effect3_innerShadow_544_444"/>
<feOffset/>
<feComposite in2="hardAlpha" operator="arithmetic" k2="-1" k3="1"/>
<feColorMatrix type="matrix" values="0 0 0 0 0.0627451 0 0 0 0 0.0941176 0 0 0 0 0.156863 0 0 0 0.18 0"/>
<feBlend mode="normal" in2="effect2_innerShadow_544_444" result="effect3_innerShadow_544_444"/>
</filter>
<linearGradient id="paint0_linear_544_444" x1="39.4416" y1="1.51697" x2="39.4416" y2="74.3322" gradientUnits="userSpaceOnUse">
<stop stop-color="white" stop-opacity="0.12"/>
<stop offset="1" stop-color="white" stop-opacity="0"/>
</linearGradient>
</defs>
</svg>
